<svg viewBox="0 0 76 76" fill="none" xmlns="http://www.w3.org/2000/svg">
<path d="M64.617 11.0437C57.5089 3.91875 48.0429 0 37.983 0C17.2187 0 0.322321 16.8964 0.322321 37.6607C0.322321 44.2937 2.05268 50.7741 5.34375 56.4911L0 76L19.967 70.758C25.4634 73.7607 31.6554 75.3384 37.9661 75.3384H37.983C58.7304 75.3384 76 58.442 76 37.6777C76 27.6179 71.725 18.1687 64.617 11.0437ZM37.983 68.9937C32.3509 68.9937 26.8375 67.4839 22.0366 64.6339L20.9 63.9554L9.05893 67.0598L12.2143 55.5071L11.4679 54.3196C8.32946 49.3321 6.68393 43.5812 6.68393 37.6607C6.68393 20.408 20.7304 6.36161 38 6.36161C46.3634 6.36161 54.2179 9.61875 60.1214 15.5393C66.025 21.4598 69.6554 29.3143 69.6384 37.6777C69.6384 54.9473 55.2357 68.9937 37.983 68.9937ZM55.1509 45.5491C54.2179 45.0741 49.5866 42.8009 48.7214 42.4955C47.8563 42.1732 47.2286 42.0205 46.6009 42.9705C45.9732 43.9205 44.175 46.0241 43.6152 46.6687C43.0723 47.2964 42.5125 47.3812 41.5795 46.9062C36.0491 44.1411 32.4187 41.9696 28.7714 35.7098C27.8045 34.0473 29.7384 34.1661 31.5366 30.5696C31.842 29.942 31.6893 29.3991 31.4518 28.9241C31.2143 28.4491 29.3312 23.8179 28.5509 21.9348C27.7875 20.1027 27.0071 20.3571 26.4304 20.3232C25.8875 20.2893 25.2598 20.2893 24.6321 20.2893C24.0045 20.2893 22.9866 20.5268 22.1214 21.4598C21.2562 22.4098 18.8304 24.683 18.8304 29.3143C18.8304 33.9455 22.2063 38.4241 22.6643 39.0518C23.1393 39.6795 29.2973 49.1795 38.7464 53.2679C44.7179 55.8464 47.0589 56.067 50.0446 55.6259C51.8598 55.3545 55.6089 53.3527 56.3893 51.1473C57.1696 48.942 57.1696 47.0589 56.9321 46.6687C56.7116 46.2446 56.0839 46.0071 55.1509 45.5491Z" fill="#74D200"/>
</svg>
