<svg preserveAspectRatio="none" width="100%" height="100%" overflow="visible" style="display: block;" viewBox="0 0 15 16" fill="none" xmlns="http://www.w3.org/2000/svg">
<path id="Vector" d="M13.662 7.66533C13.7058 7.70902 13.7405 7.7609 13.7641 7.81801C13.7878 7.87512 13.8 7.93634 13.8 7.99817C13.8 8.05999 13.7878 8.1212 13.7641 8.17832C13.7405 8.23543 13.7058 8.28731 13.662 8.331L7.22796 14.7604C6.4337 15.5543 5.35658 16.0002 4.23355 16C3.11053 15.9998 2.03358 15.5534 1.23963 14.7592C0.44569 13.9649 -0.000220472 12.8878 8.17779e-08 11.7648C0.000220636 10.6418 0.446554 9.56481 1.24081 8.77086L9.02426 0.873724C9.30083 0.596901 9.62921 0.377263 9.99065 0.227349C10.3521 0.0774356 10.7395 0.000182344 11.1308 3.22407e-07C11.5221 -0.000181699 11.9097 0.0767111 12.2712 0.226289C12.6328 0.375866 12.9614 0.595198 13.2382 0.871763C13.5151 1.14833 13.7347 1.47671 13.8846 1.83816C14.0345 2.19961 14.1118 2.58704 14.112 2.97835C14.1121 3.36965 14.0352 3.75716 13.8857 4.11875C13.7361 4.48033 13.5168 4.80892 13.2402 5.08574L5.45596 12.9797C5.2959 13.1401 5.10583 13.2674 4.89658 13.3543C4.68733 13.4412 4.46302 13.486 4.23644 13.4863C4.00986 13.4865 3.78546 13.4421 3.57605 13.3556C3.36664 13.2691 3.17631 13.1422 3.01594 12.9821C2.85557 12.822 2.7283 12.632 2.64139 12.4227C2.55448 12.2135 2.50964 11.9892 2.50942 11.7626C2.5092 11.536 2.55361 11.3116 2.64012 11.1022C2.72663 10.8928 2.85353 10.7024 3.01359 10.5421L9.54331 3.90337C9.58666 3.8593 9.63827 3.8242 9.69518 3.80007C9.75209 3.77595 9.8132 3.76327 9.87502 3.76276C9.93683 3.76225 9.99814 3.77392 10.0554 3.7971C10.1127 3.82028 10.1649 3.85453 10.209 3.89788C10.2531 3.94123 10.2882 3.99283 10.3123 4.04974C10.3364 4.10666 10.3491 4.16776 10.3496 4.22958C10.3501 4.29139 10.3384 4.3527 10.3153 4.41C10.2921 4.46731 10.2578 4.51948 10.2145 4.56355L3.68475 11.2054C3.61175 11.278 3.55377 11.3643 3.51412 11.4594C3.47448 11.5544 3.45394 11.6564 3.45369 11.7594C3.45343 11.8623 3.47346 11.9644 3.51264 12.0596C3.55181 12.1549 3.60937 12.2415 3.68201 12.3145C3.75465 12.3875 3.84096 12.4454 3.93601 12.4851C4.03106 12.5247 4.13299 12.5453 4.23597 12.5455C4.33896 12.5458 4.44099 12.5258 4.53623 12.4866C4.63148 12.4474 4.71807 12.3898 4.79107 12.3172L12.5722 4.42242C12.9548 4.04042 13.17 3.52207 13.1704 2.9814C13.1709 2.44072 12.9565 1.92202 12.5745 1.5394C12.1925 1.15677 11.6742 0.94157 11.1335 0.941129C10.5928 0.940688 10.0741 1.15505 9.6915 1.53705L1.90727 9.43105C1.28925 10.0483 0.941758 10.8859 0.941244 11.7594C0.940729 12.6329 1.28723 13.4708 1.90452 14.0888C2.52182 14.7068 3.35934 15.0543 4.23284 15.0548C5.10634 15.0554 5.94426 14.7088 6.56228 14.0916L12.9964 7.66219C13.0403 7.61866 13.0923 7.5842 13.1495 7.56079C13.2067 7.53739 13.268 7.52549 13.3298 7.52578C13.3917 7.52607 13.4528 7.53855 13.5098 7.56249C13.5668 7.58644 13.6185 7.62138 13.662 7.66533Z" fill="var(--fill-0, #A1A1AA)"/>
</svg>
