<svg preserveAspectRatio="none" width="100%" height="100%" overflow="visible" style="display: block;" viewBox="0 0 16 14" fill="none" xmlns="http://www.w3.org/2000/svg">
<path id="Vector" d="M1 1V9.29375L3.64687 6.64687L4 6.29375L4.35313 6.64687L7 9.29375L11.6469 4.64687L12 4.29375L12.3531 4.64687L15 7.29375V1H1ZM1 10.7063V13H3.29375L6.29375 10L4 7.70625L1 10.7063ZM12 5.70625L4.70625 13H15V8.70625L12 5.70625ZM0 0H1H15H16V1V13V14H15H1H0V13V1V0ZM5 3.5C5 3.36739 4.94732 3.24021 4.85355 3.14645C4.75979 3.05268 4.63261 3 4.5 3C4.36739 3 4.24021 3.05268 4.14645 3.14645C4.05268 3.24021 4 3.36739 4 3.5C4 3.63261 4.05268 3.75979 4.14645 3.85355C4.24021 3.94732 4.36739 4 4.5 4C4.63261 4 4.75979 3.94732 4.85355 3.85355C4.94732 3.75979 5 3.63261 5 3.5ZM3 3.5C3 3.10218 3.15804 2.72064 3.43934 2.43934C3.72064 2.15804 4.10218 2 4.5 2C4.89782 2 5.27936 2.15804 5.56066 2.43934C5.84196 2.72064 6 3.10218 6 3.5C6 3.89782 5.84196 4.27936 5.56066 4.56066C5.27936 4.84196 4.89782 5 4.5 5C4.10218 5 3.72064 4.84196 3.43934 4.56066C3.15804 4.27936 3 3.89782 3 3.5Z" fill="var(--fill-0, #A1A1AA)"/>
</svg>
