<svg preserveAspectRatio="none" width="100%" height="100%" overflow="visible" style="display: block;" viewBox="0 0 20 16" fill="none" xmlns="http://www.w3.org/2000/svg">
<path id="Vector" d="M9.19687 9.94687L9 11L10.0531 10.8031L13 10.25L19.2938 3.95625L20 3.25L19.2938 2.54375L17.4562 0.70625L16.75 0L16.0438 0.70625L9.75 7L9.19687 9.94687ZM10.25 9.75L10.675 7.49062L14.9781 3.18438L16.8125 5.01875L12.5125 9.325L10.2531 9.75H10.25ZM18.5844 3.25L17.5187 4.31563L15.6844 2.47813L16.75 1.41562L18.5844 3.25ZM0.5 4H0V4.5V15.5V16H0.5H17.5H18V15.5V8.5V8H17V8.5V15H1V5H9.5H10V4H9.5H0.5ZM4.75 9.25H3.25V10.75H4.75V9.25ZM6.25 9.25V10.75H7.75V9.25H6.25Z" fill="var(--fill-0, #A1A1AA)"/>
</svg>
