<svg preserveAspectRatio="none" width="100%" height="100%" overflow="visible" style="display: block;" viewBox="0 0 36 36" fill="none" xmlns="http://www.w3.org/2000/svg">
<g id="whatsapp 1">
<path id="Vector" d="M25.0045 10.9063C23.1339 9.03125 20.6429 8 17.9955 8C12.5312 8 8.08482 12.4464 8.08482 17.9107C8.08482 19.6563 8.54018 21.3616 9.40625 22.8661L8 28L13.2545 26.6205C14.7009 27.4107 16.3304 27.8259 17.9911 27.8259H17.9955C23.4554 27.8259 28 23.3795 28 17.9152C28 15.2679 26.875 12.7813 25.0045 10.9063ZM17.9955 26.1563C16.5134 26.1563 15.0625 25.7589 13.7991 25.0089L13.5 24.8304L10.3839 25.6473L11.2143 22.6071L11.0179 22.2946C10.192 20.9821 9.75893 19.4688 9.75893 17.9107C9.75893 13.3705 13.4554 9.67411 18 9.67411C20.2009 9.67411 22.2679 10.5312 23.8214 12.0893C25.375 13.6473 26.3304 15.7143 26.3259 17.9152C26.3259 22.4598 22.5357 26.1563 17.9955 26.1563ZM22.5134 19.9866C22.2679 19.8616 21.0491 19.2634 20.8214 19.183C20.5938 19.0982 20.4286 19.058 20.2634 19.308C20.0982 19.558 19.625 20.1116 19.4777 20.2813C19.3348 20.4464 19.1875 20.4688 18.942 20.3438C17.4866 19.6161 16.5313 19.0446 15.5714 17.3973C15.317 16.9598 15.8259 16.9911 16.2991 16.0446C16.3795 15.8795 16.3393 15.7366 16.2768 15.6116C16.2143 15.4866 15.7188 14.2679 15.5134 13.7723C15.3125 13.2902 15.1071 13.3571 14.9554 13.3482C14.8125 13.3393 14.6473 13.3393 14.4821 13.3393C14.317 13.3393 14.0491 13.4018 13.8214 13.6473C13.5937 13.8973 12.9554 14.4955 12.9554 15.7143C12.9554 16.933 13.8438 18.1116 13.9643 18.2768C14.0893 18.442 15.7098 20.942 18.1964 22.0179C19.7679 22.6964 20.3839 22.7545 21.1696 22.6384C21.6473 22.567 22.6339 22.0402 22.8393 21.4598C23.0446 20.8795 23.0446 20.3839 22.9821 20.2813C22.9241 20.1696 22.7589 20.1071 22.5134 19.9866Z" fill="var(--fill-0, #09090B)"/>
</g>
</svg>
